<mxfile host="app.diagrams.net" agent="Mozilla/5.0 (Windows NT 10.0; Win64; x64) AppleWebKit/537.36 (KHTML, like Gecko) Chrome/131.0.0.0 Safari/537.36 Edg/131.0.0.0" version="25.0.1">
  <diagram name="Page-1" id="6JJxXWSA0R81BekkcZx6">
    <mxGraphModel dx="1737" dy="1022" grid="1" gridSize="10" guides="1" tooltips="1" connect="1" arrows="1" fold="1" page="1" pageScale="1" pageWidth="850" pageHeight="1100" math="0" shadow="0">
      <root>
        <mxCell id="0" />
        <mxCell id="1" parent="0" />
        <mxCell id="CaFQUgA78_9TuHAQfQeS-3" value="&lt;font style=&quot;font-size: 16px;&quot;&gt;General User&lt;/font&gt;" style="shape=umlActor;verticalLabelPosition=bottom;verticalAlign=top;html=1;outlineConnect=0;" vertex="1" parent="1">
          <mxGeometry x="270" y="90" width="60" height="110" as="geometry" />
        </mxCell>
        <mxCell id="CaFQUgA78_9TuHAQfQeS-4" value="" style="rounded=0;whiteSpace=wrap;html=1;" vertex="1" parent="1">
          <mxGeometry x="410" y="10" width="640" height="670" as="geometry" />
        </mxCell>
        <mxCell id="CaFQUgA78_9TuHAQfQeS-5" value="&lt;font style=&quot;font-size: 16px;&quot;&gt;Log in&lt;/font&gt;" style="ellipse;whiteSpace=wrap;html=1;" vertex="1" parent="1">
          <mxGeometry x="440" y="80" width="120" height="70" as="geometry" />
        </mxCell>
        <mxCell id="CaFQUgA78_9TuHAQfQeS-6" value="&lt;font style=&quot;font-size: 16px;&quot;&gt;Buy pages&lt;/font&gt;" style="ellipse;whiteSpace=wrap;html=1;" vertex="1" parent="1">
          <mxGeometry x="442.5" y="270" width="120" height="70" as="geometry" />
        </mxCell>
        <mxCell id="CaFQUgA78_9TuHAQfQeS-7" value="&lt;font style=&quot;font-size: 16px;&quot;&gt;Log out&lt;/font&gt;" style="ellipse;whiteSpace=wrap;html=1;" vertex="1" parent="1">
          <mxGeometry x="440" y="170" width="120" height="70" as="geometry" />
        </mxCell>
        <mxCell id="CaFQUgA78_9TuHAQfQeS-8" value="&lt;font style=&quot;font-size: 16px;&quot;&gt;Print&lt;/font&gt;" style="ellipse;whiteSpace=wrap;html=1;" vertex="1" parent="1">
          <mxGeometry x="440" y="510" width="125" height="70" as="geometry" />
        </mxCell>
        <mxCell id="CaFQUgA78_9TuHAQfQeS-9" value="&lt;font style=&quot;font-size: 16px;&quot;&gt;View printing history&lt;/font&gt;" style="ellipse;whiteSpace=wrap;html=1;" vertex="1" parent="1">
          <mxGeometry x="667.5" y="600" width="135" height="70" as="geometry" />
        </mxCell>
        <mxCell id="CaFQUgA78_9TuHAQfQeS-10" value="&lt;font style=&quot;font-size: 16px;&quot;&gt;Specify printing properties&lt;/font&gt;" style="ellipse;whiteSpace=wrap;html=1;" vertex="1" parent="1">
          <mxGeometry x="667.5" y="510" width="132.5" height="70" as="geometry" />
        </mxCell>
        <mxCell id="CaFQUgA78_9TuHAQfQeS-11" value="&lt;font style=&quot;font-size: 16px;&quot;&gt;View purchase history&lt;/font&gt;" style="ellipse;whiteSpace=wrap;html=1;" vertex="1" parent="1">
          <mxGeometry x="440" y="400" width="122.5" height="70" as="geometry" />
        </mxCell>
        <mxCell id="CaFQUgA78_9TuHAQfQeS-12" value="&lt;font style=&quot;font-size: 16px;&quot;&gt;Process payment&lt;/font&gt;" style="ellipse;whiteSpace=wrap;html=1;" vertex="1" parent="1">
          <mxGeometry x="910" y="270" width="117.5" height="70" as="geometry" />
        </mxCell>
        <mxCell id="CaFQUgA78_9TuHAQfQeS-13" value="&lt;font style=&quot;font-size: 16px;&quot;&gt;Authenticate&lt;/font&gt;" style="ellipse;whiteSpace=wrap;html=1;" vertex="1" parent="1">
          <mxGeometry x="910" y="80" width="117.5" height="70" as="geometry" />
        </mxCell>
        <mxCell id="CaFQUgA78_9TuHAQfQeS-14" value="&lt;font style=&quot;font-size: 16px;&quot;&gt;Manage&lt;/font&gt;&lt;div&gt;&lt;font size=&quot;3&quot; style=&quot;&quot;&gt;printer&lt;/font&gt;&lt;/div&gt;" style="ellipse;whiteSpace=wrap;html=1;" vertex="1" parent="1">
          <mxGeometry x="900" y="365" width="127.5" height="70" as="geometry" />
        </mxCell>
        <mxCell id="CaFQUgA78_9TuHAQfQeS-15" value="&lt;font style=&quot;font-size: 16px;&quot;&gt;Configure system&lt;/font&gt;" style="ellipse;whiteSpace=wrap;html=1;" vertex="1" parent="1">
          <mxGeometry x="810" y="435" width="122.5" height="70" as="geometry" />
        </mxCell>
        <mxCell id="CaFQUgA78_9TuHAQfQeS-16" value="&lt;font style=&quot;font-size: 16px;&quot;&gt;View report&lt;/font&gt;" style="ellipse;whiteSpace=wrap;html=1;" vertex="1" parent="1">
          <mxGeometry x="900" y="505" width="127.5" height="70" as="geometry" />
        </mxCell>
        <mxCell id="CaFQUgA78_9TuHAQfQeS-17" value="&lt;font style=&quot;font-size: 16px;&quot;&gt;Student/Lecturer&lt;/font&gt;" style="shape=umlActor;verticalLabelPosition=bottom;verticalAlign=top;html=1;outlineConnect=0;" vertex="1" parent="1">
          <mxGeometry x="270" y="400" width="60" height="110" as="geometry" />
        </mxCell>
        <mxCell id="CaFQUgA78_9TuHAQfQeS-18" value="&lt;font style=&quot;font-size: 14px;&quot;&gt;&amp;lt;&amp;lt;extend&amp;gt;&amp;gt;&lt;/font&gt;" style="html=1;verticalAlign=bottom;endArrow=open;dashed=1;endSize=8;curved=0;rounded=0;exitX=0.5;exitY=0;exitDx=0;exitDy=0;entryX=0.5;entryY=1;entryDx=0;entryDy=0;" edge="1" parent="1" source="CaFQUgA78_9TuHAQfQeS-11" target="CaFQUgA78_9TuHAQfQeS-6">
          <mxGeometry x="-0.3328" y="-1" relative="1" as="geometry">
            <mxPoint x="760" y="270" as="sourcePoint" />
            <mxPoint x="501" y="400" as="targetPoint" />
            <mxPoint as="offset" />
          </mxGeometry>
        </mxCell>
        <mxCell id="CaFQUgA78_9TuHAQfQeS-19" value="&lt;font style=&quot;font-size: 14px;&quot;&gt;&amp;lt;&amp;lt;include&amp;gt;&amp;gt;&lt;/font&gt;" style="html=1;verticalAlign=bottom;endArrow=open;dashed=1;endSize=8;curved=0;rounded=0;exitX=1;exitY=0.5;exitDx=0;exitDy=0;entryX=0;entryY=0.5;entryDx=0;entryDy=0;" edge="1" parent="1" source="CaFQUgA78_9TuHAQfQeS-5" target="CaFQUgA78_9TuHAQfQeS-13">
          <mxGeometry relative="1" as="geometry">
            <mxPoint x="547" y="351" as="sourcePoint" />
            <mxPoint x="623" y="380" as="targetPoint" />
          </mxGeometry>
        </mxCell>
        <mxCell id="CaFQUgA78_9TuHAQfQeS-20" value="&lt;font style=&quot;font-size: 14px;&quot;&gt;&amp;lt;&amp;lt;include&amp;gt;&amp;gt;&lt;/font&gt;" style="html=1;verticalAlign=bottom;endArrow=open;dashed=1;endSize=8;curved=0;rounded=0;entryX=0;entryY=0.5;entryDx=0;entryDy=0;exitX=1;exitY=0.5;exitDx=0;exitDy=0;" edge="1" parent="1" source="CaFQUgA78_9TuHAQfQeS-6" target="CaFQUgA78_9TuHAQfQeS-12">
          <mxGeometry relative="1" as="geometry">
            <mxPoint x="550" y="350" as="sourcePoint" />
            <mxPoint x="835" y="320" as="targetPoint" />
          </mxGeometry>
        </mxCell>
        <mxCell id="CaFQUgA78_9TuHAQfQeS-21" value="&lt;font style=&quot;font-size: 14px;&quot;&gt;&amp;lt;&amp;lt;extend&amp;gt;&amp;gt;&lt;/font&gt;" style="html=1;verticalAlign=bottom;endArrow=open;dashed=1;endSize=8;curved=0;rounded=0;exitX=0;exitY=0.5;exitDx=0;exitDy=0;entryX=1;entryY=0.5;entryDx=0;entryDy=0;" edge="1" parent="1" source="CaFQUgA78_9TuHAQfQeS-10" target="CaFQUgA78_9TuHAQfQeS-8">
          <mxGeometry x="-0.0732" relative="1" as="geometry">
            <mxPoint x="510" y="370" as="sourcePoint" />
            <mxPoint x="510" y="410" as="targetPoint" />
            <mxPoint as="offset" />
          </mxGeometry>
        </mxCell>
        <mxCell id="CaFQUgA78_9TuHAQfQeS-22" value="&lt;b&gt;&lt;font style=&quot;font-size: 24px;&quot;&gt;HCMUT_SPSS&lt;/font&gt;&lt;/b&gt;" style="text;html=1;align=center;verticalAlign=middle;whiteSpace=wrap;rounded=0;" vertex="1" parent="1">
          <mxGeometry x="700" y="30" width="60" height="30" as="geometry" />
        </mxCell>
        <mxCell id="CaFQUgA78_9TuHAQfQeS-23" value="&lt;font style=&quot;font-size: 16px;&quot;&gt;HCMUT_SSO&lt;/font&gt;" style="shape=umlActor;verticalLabelPosition=bottom;verticalAlign=top;html=1;outlineConnect=0;" vertex="1" parent="1">
          <mxGeometry x="1109" y="60" width="60" height="110" as="geometry" />
        </mxCell>
        <mxCell id="CaFQUgA78_9TuHAQfQeS-24" value="&lt;font style=&quot;font-size: 16px;&quot;&gt;BKPay &lt;/font&gt;&lt;font style=&quot;font-size: 16px;&quot;&gt;System&lt;/font&gt;" style="shape=umlActor;verticalLabelPosition=bottom;verticalAlign=top;html=1;outlineConnect=0;" vertex="1" parent="1">
          <mxGeometry x="1109" y="240" width="60" height="110" as="geometry" />
        </mxCell>
        <mxCell id="CaFQUgA78_9TuHAQfQeS-25" value="&lt;font style=&quot;font-size: 16px;&quot;&gt;SPSO&lt;/font&gt;" style="shape=umlActor;verticalLabelPosition=bottom;verticalAlign=top;html=1;outlineConnect=0;" vertex="1" parent="1">
          <mxGeometry x="1109" y="435" width="60" height="110" as="geometry" />
        </mxCell>
        <mxCell id="CaFQUgA78_9TuHAQfQeS-26" value="" style="endArrow=none;html=1;rounded=0;entryX=0;entryY=0.5;entryDx=0;entryDy=0;" edge="1" parent="1" target="CaFQUgA78_9TuHAQfQeS-5">
          <mxGeometry width="50" height="50" relative="1" as="geometry">
            <mxPoint x="340" y="150" as="sourcePoint" />
            <mxPoint x="990" y="330" as="targetPoint" />
          </mxGeometry>
        </mxCell>
        <mxCell id="CaFQUgA78_9TuHAQfQeS-27" value="" style="endArrow=none;html=1;rounded=0;entryX=0;entryY=0.5;entryDx=0;entryDy=0;" edge="1" parent="1" target="CaFQUgA78_9TuHAQfQeS-7">
          <mxGeometry width="50" height="50" relative="1" as="geometry">
            <mxPoint x="340" y="170" as="sourcePoint" />
            <mxPoint x="450" y="120" as="targetPoint" />
          </mxGeometry>
        </mxCell>
        <mxCell id="CaFQUgA78_9TuHAQfQeS-28" value="" style="endArrow=none;html=1;rounded=0;entryX=0;entryY=0.5;entryDx=0;entryDy=0;" edge="1" parent="1" target="CaFQUgA78_9TuHAQfQeS-6">
          <mxGeometry width="50" height="50" relative="1" as="geometry">
            <mxPoint x="360" y="410" as="sourcePoint" />
            <mxPoint x="460" y="130" as="targetPoint" />
          </mxGeometry>
        </mxCell>
        <mxCell id="CaFQUgA78_9TuHAQfQeS-29" value="" style="endArrow=none;html=1;rounded=0;entryX=0;entryY=0.5;entryDx=0;entryDy=0;" edge="1" parent="1" target="CaFQUgA78_9TuHAQfQeS-11">
          <mxGeometry width="50" height="50" relative="1" as="geometry">
            <mxPoint x="360" y="450" as="sourcePoint" />
            <mxPoint x="470" y="140" as="targetPoint" />
          </mxGeometry>
        </mxCell>
        <mxCell id="CaFQUgA78_9TuHAQfQeS-30" value="" style="endArrow=none;html=1;rounded=0;entryX=0;entryY=0.5;entryDx=0;entryDy=0;" edge="1" parent="1" target="CaFQUgA78_9TuHAQfQeS-8">
          <mxGeometry width="50" height="50" relative="1" as="geometry">
            <mxPoint x="360" y="490" as="sourcePoint" />
            <mxPoint x="480" y="150" as="targetPoint" />
          </mxGeometry>
        </mxCell>
        <mxCell id="CaFQUgA78_9TuHAQfQeS-31" value="" style="endArrow=none;html=1;rounded=0;entryX=0;entryY=0.5;entryDx=0;entryDy=0;" edge="1" parent="1" target="CaFQUgA78_9TuHAQfQeS-9">
          <mxGeometry width="50" height="50" relative="1" as="geometry">
            <mxPoint x="360" y="540" as="sourcePoint" />
            <mxPoint x="490" y="160" as="targetPoint" />
            <Array as="points">
              <mxPoint x="390" y="635" />
            </Array>
          </mxGeometry>
        </mxCell>
        <mxCell id="CaFQUgA78_9TuHAQfQeS-32" value="" style="endArrow=none;html=1;rounded=0;exitX=1;exitY=0.5;exitDx=0;exitDy=0;" edge="1" parent="1" source="CaFQUgA78_9TuHAQfQeS-13" target="CaFQUgA78_9TuHAQfQeS-23">
          <mxGeometry width="50" height="50" relative="1" as="geometry">
            <mxPoint x="400" y="210" as="sourcePoint" />
            <mxPoint x="500" y="170" as="targetPoint" />
          </mxGeometry>
        </mxCell>
        <mxCell id="CaFQUgA78_9TuHAQfQeS-33" value="" style="endArrow=none;html=1;rounded=0;exitX=1;exitY=0.5;exitDx=0;exitDy=0;" edge="1" parent="1" source="CaFQUgA78_9TuHAQfQeS-12">
          <mxGeometry width="50" height="50" relative="1" as="geometry">
            <mxPoint x="410" y="220" as="sourcePoint" />
            <mxPoint x="1100" y="305" as="targetPoint" />
          </mxGeometry>
        </mxCell>
        <mxCell id="CaFQUgA78_9TuHAQfQeS-34" value="" style="endArrow=none;html=1;rounded=0;exitX=1;exitY=0.5;exitDx=0;exitDy=0;" edge="1" parent="1" source="CaFQUgA78_9TuHAQfQeS-14">
          <mxGeometry width="50" height="50" relative="1" as="geometry">
            <mxPoint x="420" y="230" as="sourcePoint" />
            <mxPoint x="1100" y="470" as="targetPoint" />
          </mxGeometry>
        </mxCell>
        <mxCell id="CaFQUgA78_9TuHAQfQeS-35" value="" style="endArrow=none;html=1;rounded=0;exitX=1;exitY=0.5;exitDx=0;exitDy=0;" edge="1" parent="1" source="CaFQUgA78_9TuHAQfQeS-15">
          <mxGeometry width="50" height="50" relative="1" as="geometry">
            <mxPoint x="430" y="240" as="sourcePoint" />
            <mxPoint x="1100" y="500" as="targetPoint" />
          </mxGeometry>
        </mxCell>
        <mxCell id="CaFQUgA78_9TuHAQfQeS-36" value="" style="endArrow=none;html=1;rounded=0;exitX=1;exitY=0.5;exitDx=0;exitDy=0;" edge="1" parent="1" source="CaFQUgA78_9TuHAQfQeS-16">
          <mxGeometry width="50" height="50" relative="1" as="geometry">
            <mxPoint x="440" y="250" as="sourcePoint" />
            <mxPoint x="1090" y="540" as="targetPoint" />
          </mxGeometry>
        </mxCell>
        <mxCell id="CaFQUgA78_9TuHAQfQeS-37" value="" style="endArrow=none;html=1;rounded=0;entryX=1;entryY=0.5;entryDx=0;entryDy=0;" edge="1" parent="1" target="CaFQUgA78_9TuHAQfQeS-9">
          <mxGeometry width="50" height="50" relative="1" as="geometry">
            <mxPoint x="1100" y="550" as="sourcePoint" />
            <mxPoint x="1070" y="630" as="targetPoint" />
            <Array as="points">
              <mxPoint x="1070" y="635" />
            </Array>
          </mxGeometry>
        </mxCell>
        <mxCell id="CaFQUgA78_9TuHAQfQeS-38" value="" style="endArrow=block;endSize=16;endFill=0;html=1;rounded=0;" edge="1" parent="1">
          <mxGeometry width="160" relative="1" as="geometry">
            <mxPoint x="210" y="160" as="sourcePoint" />
            <mxPoint x="260" y="160" as="targetPoint" />
          </mxGeometry>
        </mxCell>
        <mxCell id="CaFQUgA78_9TuHAQfQeS-39" value="" style="endArrow=none;html=1;rounded=0;" edge="1" parent="1">
          <mxGeometry relative="1" as="geometry">
            <mxPoint x="210" y="160" as="sourcePoint" />
            <mxPoint x="210" y="710" as="targetPoint" />
            <Array as="points">
              <mxPoint x="210" y="460" />
            </Array>
          </mxGeometry>
        </mxCell>
        <mxCell id="CaFQUgA78_9TuHAQfQeS-40" value="" style="endArrow=none;html=1;rounded=0;" edge="1" parent="1">
          <mxGeometry relative="1" as="geometry">
            <mxPoint x="210" y="460" as="sourcePoint" />
            <mxPoint x="260" y="460" as="targetPoint" />
          </mxGeometry>
        </mxCell>
        <mxCell id="CaFQUgA78_9TuHAQfQeS-41" value="" style="endArrow=none;html=1;rounded=0;" edge="1" parent="1">
          <mxGeometry relative="1" as="geometry">
            <mxPoint x="1140" y="710" as="sourcePoint" />
            <mxPoint x="210" y="710" as="targetPoint" />
            <Array as="points">
              <mxPoint x="680" y="710" />
            </Array>
          </mxGeometry>
        </mxCell>
        <mxCell id="CaFQUgA78_9TuHAQfQeS-42" value="" style="endArrow=none;html=1;rounded=0;" edge="1" parent="1">
          <mxGeometry relative="1" as="geometry">
            <mxPoint x="1140" y="590" as="sourcePoint" />
            <mxPoint x="1140" y="710" as="targetPoint" />
          </mxGeometry>
        </mxCell>
      </root>
    </mxGraphModel>
  </diagram>
</mxfile>
